<?xml version="1.0" encoding="UTF-8" standalone="no"?>
<svg
   version="1.1"
   width="232"
   height="232"
   id="svg21"
   sodipodi:docname="splash.svg"
   inkscape:version="1.3 (0e150ed6c4, 2023-07-21)"
   xmlns:inkscape="http://www.inkscape.org/namespaces/inkscape"
   xmlns:sodipodi="http://sodipodi.sourceforge.net/DTD/sodipodi-0.dtd"
   xmlns="http://www.w3.org/2000/svg"
   xmlns:svg="http://www.w3.org/2000/svg">
  <defs
     id="defs21" />
  <sodipodi:namedview
     id="namedview21"
     pagecolor="#ffffff"
     bordercolor="#000000"
     borderopacity="0.25"
     inkscape:showpageshadow="2"
     inkscape:pageopacity="0.0"
     inkscape:pagecheckerboard="0"
     inkscape:deskcolor="#d1d1d1"
     inkscape:zoom="3.1488349"
     inkscape:cx="126.23717"
     inkscape:cy="111.62859"
     inkscape:window-width="1920"
     inkscape:window-height="1111"
     inkscape:window-x="-9"
     inkscape:window-y="-9"
     inkscape:window-maximized="1"
     inkscape:current-layer="svg21" />
  <path
     d="M -0.07905864,0.18708624 231.76452,-0.6174773 232.32595,233.00404 0.70798904,232.80551 Z"
     fill="#fd4f0d"
     id="path1"
     sodipodi:nodetypes="ccccc"
     style="fill:#fd4f0d;fill-opacity:1;stroke-width:0.885478" />
  <path
     d="m 154,49 3.21484,1.894531 c 3.99779,2.463065 4.47576,2.771713 8.69634,6.084416 3.59916,2.650824 4.60969,3.492929 7.06729,5.46653 2.48216,-2.274206 5.73636,-5.091076 8.52153,-7.320477 1.13533,-0.893335 2.27075,-1.786567 3.40625,-2.679688 1.78328,-1.409515 3.56368,-2.822733 5.33594,-4.246093 C 192.61685,46.579167 194.18828,46.630036 197,47 c 2,2 2,2 2.01562,4.804687 -1.33378,4.196296 -3.78659,5.907067 -7.26562,8.320313 -1.15126,0.835635 -2.30231,1.671568 -3.45313,2.507813 l -1.68164,1.196289 c -2.26913,1.644917 -5.06159,3.511949 -7.23277,5.283179 l 1.83519,3.989254 c 1.95112,5.347504 1.49585,7.538215 1.38937,11.775658 C 181.11228,87.438596 181,88 178.5,88.3125 L 176,88 c -2.0235,-3.035255 -2.32124,-4.194262 -2.625,-7.6875 l -0.39498,-2.112377 -1.15897,-2.312404 C 164.30923,80.023145 159.45544,86.712877 157,95 c -0.50505,4.11254 -0.35665,6.28669 1.5,10 3.63428,4.36114 7.84607,7.85073 12.24609,11.41406 6.60645,5.37083 8.65006,10.32502 10.25391,18.58594 0.86389,8.79597 -0.25311,17.85554 -5.34375,25.26953 -4.90039,5.11998 -11.54792,5.98022 -18.34375,6.23047 -5.58029,-0.15831 -8.85817,-1.18515 -13.3125,-4.5 l -0.88281,1.6875 c -7.93157,14.76568 -7.93157,14.76568 -13.92969,17.3125 -4.33731,1.27128 -8.71632,1.81216 -13.1875,1 -2.875,-2 -2.875,-2 -5,-4 h -3 l -1.5,2.1875 c -4.2488,4.7799 -9.991135,7.28886 -16.300781,8.23047 C 85.314266,188.56995 82.797118,188.2522 79,185 c -2.967222,1.35588 -5.213246,2.95134 -7.6875,5.0625 C 67.000989,193.29813 63.412807,194.66206 58,194 c -7.37027,-2.25234 -12.3688,-6.2286 -16,-13 -1.52985,-3.61187 -3.17244,-6.40299 -4.39697,-10.12666 l -1.9918,-6.10654 C 33.76828,151.33789 33.60198,136.25135 34.875,121.5625 l 0.2373,-2.76221 C 35.86255,110.9371 37.24147,103.51778 40.15234,96.160156 41.1386,93.646805 42.03504,91.107093 42.9375,88.5625 50.67922,67.453978 63.98049,50.078299 84.5625,40.1875 107.20529,30.613913 133.53283,36.864601 154,49 Z M 90,48 87.589844,48.925781 C 71.043169,56.13709 58.507377,72.921141 51.875,89.1875 c -7.62901,19.57808 -10.13789,37.50757 -9.11318,58.43067 l 0.52363,5.09638 c 0.15476,1.91449 0.75117,7.00766 0.85137,8.92578 1.47349,5.85271 0.61731,3.26901 2.03711,6.61299 l 2.76357,5.30918 c 1.40922,4.55925 2.92969,7.125 7.042969,9.65625 C 58.48237,184.35559 60.243141,184.96852 63,185 c 3.199199,-1.86664 5.569469,-4.22509 8,-7 -0.554606,-2.89187 -1.189598,-5.66359 -2,-8.5 -2.989098,-10.46184 -3.614815,-21.39877 0.734375,-31.54687 C 71.227575,135.6488 72.662935,134.43041 75,133 c 3.4375,-0.5625 3.4375,-0.5625 7,0 3.024754,2.46003 4.765916,5.29775 6,9 0.679806,9.21691 -0.165558,18.84267 -3.6875,27.4375 -1.312851,3.56345 -1.524519,5.03663 -0.3125,8.5625 5.365339,1.34133 8.364493,0.97324 13.195313,-1.76172 C 99.80337,174.44877 101.45078,172.76166 103,170 c -0.36154,-3.0731 -1.28094,-5.93382 -2.19141,-8.87891 C 95.024425,141.9129 95.258131,122.39583 99.5625,102.875 l 0.68677,-3.17432 c 1.64505,-6.585527 4.18012,-11.370792 8.34033,-16.735348 1.60475,-1.832973 2.16615,-2.394377 3.43145,-3.62849 L 115,77 l 2.4375,-1.125 c 3.13522,-1.070563 4.3661,-0.998154 7.66425,-0.594298 1.9622,1.094301 3.5153,1.90379 4.89332,3.21902 1.19082,1.136555 2.2509,2.72186 3.33125,4.342383 C 134.05254,86.4664 134.82188,89.313332 135,93 l 0.10303,2.016602 c 0.47332,10.566958 -0.45863,19.853918 -3.50879,29.977048 -0.60457,2.04123 -1.15283,4.09146 -1.6919,6.15088 -3.12132,11.63329 -7.30101,23.38606 -13.64453,33.6836 -1.50839,2.18625 -1.50839,2.18625 -1.25781,5.17187 2.24553,2.33189 3.73497,2.95489 6.9375,3.5 4.03556,-0.65887 5.72806,-2.33083 8.0625,-5.5 5.74912,-8.63827 9.51713,-15.94861 9.1875,-26.4375 l -0.041,-2.50586 C 139.1115,137.03747 139.0577,135.01865 139,133 c 2.39063,-0.57812 2.39063,-0.57812 5,-1 2.53844,1.81317 2.99489,2.98467 4,6 0.39573,3.39606 0.76523,6.79035 1.07422,10.19531 0.31514,2.895 0.60301,5.28518 2.15625,7.78516 2.4783,1.42789 4.36179,1.38222 7.20703,1.33203 l 2.87109,-0.0117 C 164.1682,156.9812 165.68583,156.70492 168,155 c 3.19987,-4.80704 3.46315,-8.92674 3.375,-14.5 l 0.0352,-2.22266 c -0.0345,-6.42317 -1.57671,-10.39426 -6.15235,-15.09375 -1.03609,-0.92461 -2.08056,-1.83991 -3.13281,-2.74609 -13.76115,-12.13109 -13.76115,-12.13109 -14.75,-22.5625 0.45587,-10.997779 8.01807,-20.073941 15.68359,-27.179688 L 165,69 C 149.55637,53.179692 128.99321,45.216625 107.125,44.625 100.93784,44.774323 95.713183,45.639579 90,48 Z"
     fill="#080100"
     id="path3"
     sodipodi:nodetypes="cccccccccccccccccccccccccccccccccccccccccccccccccccccccccsccccccccccccccccscccccccccccccccccccccccccccc" />
  <path
     d="m 123.1875,82.875 c 2.85695,1.773278 2.97905,3.916943 3.8125,7.125 0.30322,2.984093 0.33369,5.939655 0.3125,8.9375 -0.006,0.83974 -0.0113,1.67949 -0.0171,2.54468 -0.33246,17.34206 -6.24614,33.79579 -13.04541,49.58032 -0.44038,1.02758 -0.44038,1.02758 -0.88965,2.07593 -2.10922,4.73601 -2.10922,4.73601 -4.36034,5.86157 -7.56616,-18.75092 -6.77235,-44.35543 1,-63 2.5791,-5.205463 6.73827,-12.756473 13.1875,-13.125 z"
     fill="#f44c0d"
     id="path4" />
  <path
     d="m 75.967872,140.65029 2.824807,-1.29719 2.636421,2.61477 c 0.09415,5.01062 -0.223753,6.42946 -0.630078,11.42725 l -0.33457,7.34814 c -0.511719,1.8125 -0.591113,8.08466 -3.591113,10.08466 -1.493689,-2.98738 -3.32803,-11.8354 -3.33115,-15.10829 l -0.201758,-5.02041 c -0.104475,-3.26168 1.136191,-7.00159 2.627441,-10.04893 z"
     fill="#db440b"
     id="path5"
     sodipodi:nodetypes="ccccccccc" />
  <path
     d="m 138.75425,120.23061 c 2.64863,0.0574 1.37832,0.0177 4.25332,0.64273 1.02466,2.09848 1.08447,1.04219 1.39697,3.72969 -1.125,1.875 -0.64863,1.8353 -2.52363,2.9603 -2.56841,0.20356 -2.84629,0.16387 -5.15879,-0.52363 -0.82349,-2.00166 -0.58279,-0.85797 -0.32515,-4.6106 z"
     fill="#240901"
     id="path6"
     sodipodi:nodetypes="ccccccc" />
  <path
     style="fill:#fd4f0d;fill-opacity:1;stroke-width:1"
     d="m 76.79658,170.50404 c -0.495179,-0.92525 -1.45496,-4.21454 -2.085767,-7.14818 -0.937149,-4.35833 -1.195403,-6.89848 -1.221605,-12.01551 -0.01429,-2.79015 0.0052,-3.12547 0.244823,-4.21053 0.334552,-1.51497 1.000346,-3.5441 1.676275,-5.10877 l 0.533554,-1.23509 1.291228,-0.63902 c 0.710175,-0.35147 1.367841,-0.64199 1.46148,-0.64562 0.09364,-0.004 0.74555,0.57035 1.44869,1.27549 l 1.278437,1.28208 -0.0691,2.73196 c -0.03801,1.50257 -0.173962,3.81827 -0.302122,5.14599 -0.12816,1.32772 -0.32857,4.28351 -0.445355,6.56842 -0.210699,4.12235 -0.530207,6.87405 -1.074211,9.25143 -0.451451,1.9729 -1.203214,3.58986 -2.062524,4.43625 -0.524551,0.51666 -0.556014,0.53119 -0.6738,0.3111 z"
     id="path21" />
</svg>
