<?xml version="1.0" encoding="UTF-8" standalone="no"?>
<svg
   version="1.1"
   width="192"
   height="192"
   id="svg21"
   sodipodi:docname="appicon.svg"
   inkscape:version="1.3 (0e150ed6c4, 2023-07-21)"
   xmlns:inkscape="http://www.inkscape.org/namespaces/inkscape"
   xmlns:sodipodi="http://sodipodi.sourceforge.net/DTD/sodipodi-0.dtd"
   xmlns="http://www.w3.org/2000/svg"
   xmlns:svg="http://www.w3.org/2000/svg">
  <defs
     id="defs21" />
  <sodipodi:namedview
     id="namedview21"
     pagecolor="#ffffff"
     bordercolor="#000000"
     borderopacity="0.25"
     inkscape:showpageshadow="2"
     inkscape:pageopacity="0.0"
     inkscape:pagecheckerboard="0"
     inkscape:deskcolor="#d1d1d1"
     inkscape:zoom="3.1488349"
     inkscape:cx="126.55475"
     inkscape:cy="111.94617"
     inkscape:window-width="1920"
     inkscape:window-height="1111"
     inkscape:window-x="-9"
     inkscape:window-y="-9"
     inkscape:window-maximized="1"
     inkscape:current-layer="svg21" />
  <path
     d="M 0.27249709,-0.45593235 191.88113,-1.1241216 192.34512,192.89831 0.92295695,192.73342 Z"
     fill="#fd4f0d"
     id="path1"
     sodipodi:nodetypes="ccccc"
     style="fill:#fd4f0d;fill-opacity:1;stroke-width:0.885479" />
  <path
     d="m 123.71645,42.027637 2.45045,1.446417 c 3.04725,1.880476 3.41157,2.11612 6.62863,4.645269 2.74339,2.023824 3.51365,2.666745 5.38691,4.17353 1.89198,-1.736287 4.37244,-3.886883 6.49538,-5.588963 0.86539,-0.682034 1.73084,-1.36399 2.59636,-2.045861 1.35927,-1.076122 2.71635,-2.155072 4.06722,-3.241764 1.81004,-1.236861 3.00783,-1.198024 5.15102,-0.915568 1.52446,1.52694 1.52446,1.52694 1.53636,3.668234 -1.01664,3.203746 -2.88625,4.509868 -5.53808,6.352308 -0.87753,0.637982 -1.7549,1.276192 -2.63209,1.91464 l -1.2818,0.91333 c -1.7296,1.255845 -3.8581,2.681267 -5.51304,4.033548 l 1.39884,3.045675 c 1.4872,4.082658 1.14018,5.7552 1.05902,8.99036 -1.13934,1.955554 -1.22492,2.384169 -3.1305,2.622753 l -1.90558,-0.238584 c -1.54238,-2.317326 -1.76932,-3.202193 -2.00086,-5.869174 l -0.30107,-1.612737 -0.8834,-1.76545 c -5.72575,3.157273 -9.42546,8.264681 -11.29707,14.59165 -0.38497,3.1398 -0.27185,4.799698 1.14334,7.6347 2.77017,3.3296 5.98053,5.99379 9.33436,8.71429 5.03565,4.10046 6.59335,7.88284 7.81586,14.18981 0.65848,6.71545 -0.19293,13.63216 -4.07318,19.29252 -3.73523,3.90895 -8.80219,4.56572 -13.98219,4.75678 -4.25347,-0.12087 -6.75198,-0.90483 -10.14721,-3.43562 l -0.6729,1.28836 c -6.0457,11.27315 -6.0457,11.27315 -10.61766,13.21757 -3.30603,0.97058 -6.643854,1.38353 -10.051934,0.76347 -2.19141,-1.52694 -2.19141,-1.52694 -3.81115,-3.05388 h -2.2867 l -1.14335,1.67009 c -3.23857,3.64931 -7.61556,5.56482 -12.424971,6.28372 -3.723466,0.11603 -5.642116,-0.12656 -8.5364,-2.60952 -2.261711,1.03517 -3.973702,2.25326 -5.859657,3.86506 -3.28637,2.47031 -6.021396,3.51163 -10.14721,3.00617 -5.617853,-1.7196 -9.427892,-4.75535 -12.195708,-9.92511 -1.1661,-2.75755 -2.418134,-4.88849 -3.35151,-7.7314 L 33.476767,130.4121 C 32.072012,120.15953 31.945253,108.64141 32.915589,97.42692 l 0.180878,-2.10887 c 0.571864,-6.00331 1.622921,-11.66773 3.841678,-17.285056 0.751759,-1.918868 1.435054,-3.857861 2.122938,-5.800581 5.900984,-16.11572 16.039635,-29.381527 31.727896,-36.932854 17.259057,-7.309145 37.326741,-2.536933 52.927471,6.728078 z m -48.782836,-0.76347 -1.837097,0.706806 C 60.484116,47.47659 50.928937,60.290707 45.873529,72.709581 40.058455,87.65685 38.146107,101.34548 38.927174,117.31964 l 0.399127,3.89093 c 0.117963,1.46166 0.572566,5.35014 0.648941,6.81456 1.123141,4.46837 0.470534,2.4958 1.55275,5.04882 l 2.106481,4.0534 c 1.074152,3.48085 2.233103,5.43972 5.368375,7.37226 1.907028,0.86794 3.249144,1.33589 5.350509,1.35993 2.438531,-1.42512 4.245226,-3.22573 6.097854,-5.34429 -0.422738,-2.20786 -0.906749,-4.32398 -1.524464,-6.48949 -2.278385,-7.9873 -2.755326,-16.33732 0.559764,-24.08509 1.138165,-1.75928 2.232242,-2.68949 4.013627,-3.78156 2.620171,-0.42946 2.620171,-0.42946 5.335622,0 2.305564,1.87816 3.632732,4.04467 4.57339,6.87123 0.51817,7.03683 -0.126193,14.38581 -2.810729,20.9477 -1.000697,2.72059 -1.162037,3.84531 -0.238197,6.53721 4.089631,1.02406 6.375682,0.74304 10.057882,-1.34502 1.98795,-1.36624 3.24366,-2.6543 4.42452,-4.76274 -0.27558,-2.34622 -0.97637,-4.53029 -1.67036,-6.77878 -4.40888,-14.66487 -4.23074,-29.56557 -0.94981,-44.46914 l 0.52348,-2.423493 c 1.25391,-5.027851 3.18622,-8.681257 6.35726,-12.776933 1.22319,-1.39942 1.65111,-1.828035 2.61556,-2.770243 l 2.27065,-1.784108 1.85794,-0.858904 c 2.38977,-0.817342 3.32798,-0.76206 5.841944,-0.453728 1.49565,0.835465 2.67947,1.453486 3.72984,2.457624 0.90768,0.867726 1.71571,2.078058 2.53919,3.315279 0.55354,2.76704 1.13996,4.940586 1.27573,7.755246 l 0.0785,1.539615 c 0.36078,8.067555 -0.34958,15.157865 -2.67451,22.886575 -0.46082,1.55841 -0.87873,3.1237 -1.28962,4.69601 -2.37917,8.88167 -5.565064,17.85455 -10.400304,25.71641 -1.14974,1.66914 -1.14974,1.66914 -0.95874,3.94857 1.71162,1.78033 2.84691,2.25597 5.28798,2.67215 3.076044,-0.50303 4.366114,-1.77952 6.145504,-4.19909 4.38216,-6.59506 7.25426,-12.17628 7.003,-20.18423 l -0.0312,-1.91315 c -0.0267,-1.54158 -0.0677,-3.08288 -0.11167,-4.62406 1.82222,-0.44138 1.82222,-0.44138 3.81116,-0.76347 1.93488,1.3843 2.2828,2.2787 3.04893,4.58082 0.30164,2.59279 0.58328,5.18422 0.8188,7.78381 0.24021,2.21024 0.45964,4.03507 1.64357,5.94373 1.88904,1.09015 3.32469,1.05529 5.49342,1.01697 l 2.18844,-0.009 c 2.17969,-0.244 3.33647,-0.45493 5.1004,-1.75659 2.43905,-3.67003 2.63973,-6.81529 2.57254,-11.07031 l 0.0268,-1.69693 c -0.0263,-4.9039 -1.20182,-7.93571 -4.68952,-11.52363 -0.78974,-0.70591 -1.58587,-1.40472 -2.38793,-2.09656 -10.48918,-9.26172 -10.48918,-9.26172 -11.24291,-17.225784 0.34747,-8.396473 6.11162,-15.325849 11.95453,-20.750872 l 1.47977,-1.29432 C 120.32937,45.218706 104.65548,39.139144 87.986836,38.687457 c -4.71605,0.114003 -8.69845,0.7746 -13.053222,2.57671 z"
     fill="#080100"
     id="path3"
     sodipodi:nodetypes="cccccccccccccccccccccccccccccccccccccccccccccccccccccccccsccccccccccccccccscccccccccccccccccccccccccccc"
     style="stroke-width:0.999998" />
  <path
     d="m 100.23018,67.890178 c 2.17766,1.353844 2.27073,2.990468 2.90601,5.439723 0.23113,2.278265 0.25435,4.534747 0.2382,6.823511 -0.005,0.641116 -0.009,1.28224 -0.013,1.942787 -0.25341,13.240141 -4.761014,25.802071 -9.943634,37.853081 -0.33567,0.78453 -0.33567,0.78453 -0.67811,1.58491 -1.60772,3.6158 -1.60772,3.6158 -3.32359,4.47513 -5.76717,-14.31576 -5.1621,-33.86403 0.76223,-48.0986 1.96587,-3.974214 5.13612,-9.739183 10.051934,-10.020542 z"
     fill="#f44c0d"
     id="path4"
     style="stroke-width:0.999998" />
  <path
     d="m 64.237881,111.99987 2.153157,-0.99036 2.009564,1.99629 c 0.07176,3.82546 -0.170552,4.9087 -0.480266,8.72437 l -0.255019,5.61008 c -0.390049,1.38379 -0.450565,6.17239 -2.737261,7.69933 -1.138537,-2.28077 -2.53673,-9.03597 -2.539108,-11.53472 l -0.153786,-3.83293 c -0.07963,-2.4902 0.866041,-5.34551 2.002719,-7.67206 z"
     fill="#db440b"
     id="path5"
     sodipodi:nodetypes="ccccccccc"
     style="stroke-width:0.999998" />
  <path
     d="m 112.09566,96.41006 c 2.01887,0.0438 1.0506,0.0135 3.24201,0.4907 0.78103,1.60213 0.82662,0.79568 1.06482,2.84751 -0.85751,1.43151 -0.49441,1.4012 -1.92359,2.2601 -1.95773,0.15541 -2.16954,0.12511 -3.9322,-0.39978 -0.62769,-1.5282 -0.44422,-0.65503 -0.24784,-3.52005 z"
     fill="#240901"
     id="path6"
     sodipodi:nodetypes="ccccccc"
     style="stroke-width:0.999998" />
  <path
     style="fill:#fd4f0d;fill-opacity:1;stroke-width:0.999998"
     d="m 64.869548,134.79231 c -0.377441,-0.7064 -1.109017,-3.21767 -1.589838,-5.45742 -0.714324,-3.32745 -0.911174,-5.26678 -0.931146,-9.17348 -0.01089,-2.13019 0.004,-2.3862 0.186612,-3.21461 0.255006,-1.15664 0.762496,-2.70582 1.27771,-3.90039 l 0.406692,-0.94296 0.984215,-0.48787 c 0.541318,-0.26834 1.042612,-0.49014 1.113986,-0.49291 0.07138,-0.003 0.568282,0.43544 1.104238,0.9738 l 0.974465,0.97883 -0.05267,2.08577 c -0.02897,1.14716 -0.132599,2.91513 -0.230287,3.9288 -0.09769,1.01368 -0.250447,3.27033 -0.339464,5.01479 -0.160601,3.14729 -0.40414,5.24813 -0.818798,7.06319 -0.34411,1.50625 -0.917127,2.74075 -1.572121,3.38694 -0.399829,0.39446 -0.423811,0.40555 -0.513592,0.23752 z"
     id="path21" />
</svg>
